<svg width="26" height="27" viewBox="0 0 26 27" fill="none" xmlns="http://www.w3.org/2000/svg">
<path d="M11.9404 0.349121H12.8462C19.9244 0.349121 25.6623 6.08708 25.6623 13.1652V13.1652C25.6623 20.2433 19.9244 25.9813 12.8462 25.9813H11.9404V0.349121Z" fill="#EEDC3B"/>
<path d="M12.981 26.0324C20.0769 26.0324 25.8292 20.28 25.8292 13.1841C25.8292 6.08828 20.0769 0.335938 12.981 0.335938C5.88515 0.335938 0.132812 6.08828 0.132812 13.1841C0.132812 20.28 5.88515 26.0324 12.981 26.0324ZM12.981 24.1051V2.26317C19.0125 2.26317 23.902 7.15266 23.902 13.1841C23.902 19.2156 19.0125 24.1051 12.981 24.1051Z" fill="#161611"/>
</svg>
