<svg width="26" height="27" viewBox="0 0 26 27" fill="none" xmlns="http://www.w3.org/2000/svg">
<path d="M11.9805 0.828613H12.8863C19.9644 0.828613 25.7024 6.56657 25.7024 13.6447V13.6447C25.7024 20.7228 19.9644 26.4608 12.8863 26.4608H11.9805V0.828613Z" fill="#E83539"/>
<path d="M13.0215 26.5123C20.1174 26.5123 25.8698 20.76 25.8698 13.6641C25.8698 6.56826 20.1174 0.815918 13.0215 0.815918C5.92568 0.815918 0.17334 6.56826 0.17334 13.6641C0.17334 20.76 5.92568 26.5123 13.0215 26.5123ZM13.0215 24.5851V2.74315C19.053 2.74315 23.9425 7.63264 23.9425 13.6641C23.9425 19.6956 19.053 24.5851 13.0215 24.5851Z" fill="#0F0F0F"/>
</svg>
