<svg width="27" height="26" viewBox="0 0 27 26" fill="none" xmlns="http://www.w3.org/2000/svg">
<path d="M12.7476 0.263672H13.6534C20.7315 0.263672 26.4694 6.00163 26.4694 13.0798V13.0798C26.4694 20.1579 20.7315 25.8959 13.6534 25.8959H12.7476V0.263672Z" fill="#DB0007"/>
<path d="M13.7882 25.9469C20.884 25.9469 26.6364 20.1946 26.6364 13.0987C26.6364 6.00283 20.884 0.250488 13.7882 0.250488C6.69228 0.250488 0.939941 6.00283 0.939941 13.0987C0.939941 20.1946 6.69228 25.9469 13.7882 25.9469ZM13.7882 24.0197V2.17772C19.8196 2.17772 24.7091 7.06721 24.7091 13.0987C24.7091 19.1302 19.8196 24.0197 13.7882 24.0197Z" fill="#112845"/>
</svg>
