<svg width="26" height="27" viewBox="0 0 26 27" fill="none" xmlns="http://www.w3.org/2000/svg">
<path d="M11.9404 0.954102H12.8462C19.9244 0.954102 25.6623 6.69206 25.6623 13.7702V13.7702C25.6623 20.8483 19.9244 26.5863 12.8462 26.5863H11.9404V0.954102Z" fill="#FF6D2F"/>
<path d="M12.981 26.6373C20.0769 26.6373 25.8292 20.885 25.8292 13.7891C25.8292 6.69326 20.0769 0.940918 12.981 0.940918C5.88515 0.940918 0.132812 6.69326 0.132812 13.7891C0.132812 20.885 5.88515 26.6373 12.981 26.6373ZM12.981 24.7101V2.86815C19.0125 2.86815 23.902 7.75764 23.902 13.7891C23.902 19.8206 19.0125 24.7101 12.981 24.7101Z" fill="#FFE9B0"/>
</svg>
