<svg width="26" height="27" viewBox="0 0 26 27" fill="none" xmlns="http://www.w3.org/2000/svg">
<path d="M11.9805 0.658691H12.8863C19.9644 0.658691 25.7024 6.39665 25.7024 13.4748V13.4748C25.7024 20.5529 19.9644 26.2909 12.8863 26.2909H11.9805V0.658691Z" fill="#77EBD6"/>
<path d="M13.0215 26.3424C20.1174 26.3424 25.8698 20.5901 25.8698 13.4942C25.8698 6.39834 20.1174 0.645996 13.0215 0.645996C5.92568 0.645996 0.17334 6.39834 0.17334 13.4942C0.17334 20.5901 5.92568 26.3424 13.0215 26.3424ZM13.0215 24.4152V2.57323C19.053 2.57323 23.9425 7.46272 23.9425 13.4942C23.9425 19.5257 19.053 24.4152 13.0215 24.4152Z" fill="#0F5D4B"/>
</svg>
