<svg width="26" height="27" viewBox="0 0 26 27" fill="none" xmlns="http://www.w3.org/2000/svg">
<path d="M11.981 0.743652H12.8868C19.9649 0.743652 25.7028 6.48161 25.7028 13.5597V13.5597C25.7028 20.6379 19.9649 26.3758 12.8868 26.3758H11.981V0.743652Z" fill="#6771CD"/>
<path d="M13.0215 26.4279C20.1174 26.4279 25.8698 20.6755 25.8698 13.5797C25.8698 6.48378 20.1174 0.731445 13.0215 0.731445C5.92568 0.731445 0.17334 6.48378 0.17334 13.5797C0.17334 20.6755 5.92568 26.4279 13.0215 26.4279ZM13.0215 24.5006V2.65868C19.053 2.65868 23.9425 7.54817 23.9425 13.5797C23.9425 19.6111 19.053 24.5006 13.0215 24.5006Z" fill="#EDECE7"/>
</svg>
