<svg width="80" height="116" viewBox="0 0 80 116" fill="none" xmlns="http://www.w3.org/2000/svg">
<path d="M38.7131 45.0602C59.151 45.0602 75.718 61.6272 75.718 82.0651C75.718 83.4649 75.6328 84.8404 75.4868 86.2038C75.7911 85.9238 76.4363 84.7918 76.6189 84.4022C86.43 63.879 72.6384 44.8533 63.8132 34.8839C62.2795 33.1554 59.5528 33.4475 58.3477 35.4194C55.6089 39.8989 43.2051 35.5046 46.9298 27.6776C47.161 27.1907 47.6359 26.436 47.8671 25.9369C53.1622 14.7746 40.2348 -0.818601 38.8471 0.0334844C36.9481 1.20206 47.9279 10.5993 19.6996 34.7742C0.551852 51.1951 -0.860061 67.7012 0.296341 77.7437C0.405895 78.7418 1.03887 81.2737 1.72054 81.7972C1.86661 61.4811 18.3726 45.0602 38.7131 45.0602Z" fill="#E83539"/>
<path d="M52.7723 112.862C56.7649 111.036 60.3193 108.504 63.3259 105.315C66.4421 102.016 68.828 98.1817 70.4226 93.897C71.2138 91.7667 71.7981 89.5757 72.1511 87.3602C72.2485 86.7516 72.3337 86.1308 72.3946 85.5222C72.4554 84.9012 72.5041 84.2806 72.5406 83.6596C72.565 83.0388 72.5771 82.4182 72.5771 81.8095C72.5771 81.2009 72.5528 80.5923 72.5163 79.9958C72.4798 79.3872 72.4189 78.7907 72.358 78.1821C72.2849 77.5857 72.1998 76.9771 72.1023 76.3805C72.0049 75.7842 71.8832 75.1876 71.7494 74.5911C71.6154 73.9948 71.4694 73.4105 71.299 72.8261C71.226 72.5584 71.1408 72.3027 71.0677 72.0349C70.0697 68.8091 68.5967 65.766 66.6856 62.9663C62.7295 57.1721 57.1667 52.8021 50.5691 50.3433C46.2844 48.7486 41.8292 48.0305 37.2888 48.2253C32.9188 48.4079 28.6704 49.4304 24.6778 51.2563C20.6851 53.0822 17.1307 55.6141 14.1241 58.8033C11.0079 62.1021 8.62218 65.9365 7.02744 70.2213C5.60324 74.0313 4.88505 78.0239 4.88505 82.0531C4.88505 82.1505 4.88505 82.2357 4.88505 82.3331C4.9094 85.644 5.42053 88.9185 6.40664 92.0955C7.40479 95.3213 8.87768 98.3644 10.7888 101.164C14.7449 106.958 20.3078 111.328 26.9053 113.787C31.19 115.382 35.6574 116.1 40.1857 115.905C44.5315 115.698 48.7674 114.676 52.7723 112.862ZM69.8992 82.0651C69.8992 82.0895 69.8992 82.1138 69.8992 82.126C69.254 79.022 68.0854 75.9788 66.4056 73.1182C66.3082 72.9478 66.1987 72.7774 66.1013 72.607C66.2717 70.8298 66.1378 68.2614 64.9206 65.1695C68.1341 70.1603 69.8992 76.0275 69.8992 82.0651ZM29.8877 52.1691C36.1444 50.3189 43.0341 50.4041 49.6197 52.8628C52.2853 53.861 54.7443 55.1879 56.9475 56.7704C55.9006 56.7947 54.5738 57.0624 52.2976 57.8536C48.4024 55.833 43.9594 54.7131 39.2729 54.5914C36.7532 54.5305 34.6838 54.7618 33.3569 54.9809C32.0909 53.922 30.6547 52.7778 29.8877 52.1691ZM32.6023 58.4259C36.0349 57.1721 40.0762 57.452 43.5577 58.085C44.8723 58.3163 46.1625 58.645 47.4286 59.0832C48.1224 59.3143 48.8161 59.5823 49.4856 59.8866C49.8631 60.057 51.2507 60.483 51.4211 60.8482L55.4137 69.6125L44.4948 82.3451L32.1763 80.2636L25.5178 65.0355C25.4326 64.7799 26.3942 63.66 26.5525 63.4288C26.9177 62.9176 27.3072 62.4427 27.6966 61.9681C28.4636 61.0552 29.3034 60.2396 30.3015 59.5821C31.0441 59.0954 31.8111 58.718 32.6023 58.4259ZM8.26905 75.3945C8.58554 73.9703 8.99941 72.5583 9.52283 71.1585C11.1296 66.8493 13.6007 63.1002 16.6561 60.0447C15.8526 61.6758 15.2563 63.453 14.8302 64.9261C11.2635 68.6873 9.35253 72.8748 8.34208 76.1492C8.29339 75.8571 8.28122 75.6136 8.26905 75.3945ZM12.7729 91.085C11.2879 88.6627 10.2897 85.9724 9.60804 83.477C9.65673 82.6493 9.77846 81.3468 10.0949 79.7644C10.2167 79.1558 10.3627 78.5106 10.5575 77.8291C11.361 74.9076 12.9799 70.8906 16.2301 67.251C18.6037 66.5207 21.1842 66.4476 22.8642 66.4963L29.3887 81.4322L28.2567 83.7693L24.5197 91.4989L12.7729 91.085ZM47.2215 87.9445L46.6616 84.5118L57.6168 71.7184L63.6058 74.3964C65.5778 77.683 67.7445 88.7114 67.7445 88.7114C64.531 94.9073 61.573 97.7435 60.1731 98.839L48.4631 95.6498L47.2215 87.9445ZM22.6084 108.748C18.1289 106.045 14.5014 102.32 11.933 97.987C11.9817 97.9384 12.0182 97.8409 12.0426 97.707C12.213 96.6236 12.6756 95.2116 13.0651 94.1404L25.0917 94.5665L33.856 102.99L32.9307 110.72C30.0216 111.073 24.7873 109.478 22.6084 108.748ZM35.974 110.902L36.8869 103.294L47.0389 98.4129L58.7855 101.614C58.3108 103.367 57.6777 105.656 57.2761 107.104C54.1356 109.429 50.569 111.146 46.7955 112.156C42.9002 112.46 38.4207 111.535 35.974 110.902Z" fill="#E83539"/>
</svg>
