<svg width="91" height="67" viewBox="0 0 91 67" fill="none" xmlns="http://www.w3.org/2000/svg">
<path d="M88.5866 0.571899H1.60234C0.717391 0.571899 0 1.28929 0 2.17424V65.1588C0 65.1736 0.00183125 65.1879 0.0021975 65.2027C0.00311312 65.2365 0.00430343 65.2703 0.00723343 65.3035C0.00915624 65.3247 0.0122694 65.3459 0.0150162 65.3671C0.0189534 65.3977 0.0232568 65.4284 0.0290253 65.4587C0.0335118 65.4823 0.0390971 65.5057 0.0446824 65.5292C0.0510918 65.5562 0.0575927 65.583 0.0653755 65.6095C0.0729752 65.6354 0.0818567 65.6611 0.0908299 65.6867C0.0989789 65.71 0.107036 65.7334 0.116193 65.7562C0.127455 65.7843 0.140182 65.8117 0.153184 65.8391C0.162523 65.859 0.171588 65.879 0.181751 65.8984C0.196859 65.9274 0.213707 65.9557 0.230737 65.9841C0.238612 65.9972 0.245112 66.0108 0.253445 66.0239C0.25729 66.0297 0.261502 66.0353 0.265439 66.0412C0.27249 66.0521 0.279906 66.0624 0.287231 66.0729C0.309572 66.1051 0.332829 66.1363 0.357368 66.1665C0.361397 66.1716 0.365242 66.1769 0.369363 66.1819C0.399761 66.2184 0.431717 66.2536 0.465137 66.2872C0.468891 66.2911 0.472736 66.2945 0.476491 66.2983C0.510185 66.3315 0.544979 66.3634 0.581421 66.3936C0.582245 66.3943 0.582978 66.3951 0.58371 66.3957C0.620884 66.4263 0.659798 66.455 0.69972 66.4824C0.705396 66.4864 0.711256 66.4899 0.717116 66.4939C0.75365 66.5182 0.791282 66.5411 0.829921 66.5624C0.833767 66.5645 0.837612 66.567 0.841458 66.569C0.880006 66.5899 0.919836 66.6087 0.960215 66.6262C0.973033 66.6319 0.985944 66.6373 0.998854 66.6427C1.03731 66.6582 1.07632 66.6729 1.11615 66.6856C1.12759 66.6892 1.13931 66.6922 1.15085 66.6956C1.18473 66.7054 1.21906 66.7142 1.25376 66.7219C1.26731 66.7249 1.28087 66.7281 1.29451 66.7308C1.33773 66.7393 1.38149 66.746 1.4259 66.7509C1.43588 66.752 1.44604 66.7528 1.45612 66.7537C1.50519 66.7582 1.55436 66.7612 1.60371 66.7612C1.65307 66.7612 1.70242 66.7582 1.75177 66.7535C1.76193 66.7526 1.7721 66.7516 1.78217 66.7503C1.82658 66.7455 1.87053 66.7389 1.91374 66.7303C1.91869 66.7292 1.92354 66.7286 1.92849 66.7278C1.97491 66.7182 2.02051 66.706 2.06546 66.6926C2.0781 66.6886 2.09073 66.6843 2.10337 66.68C2.13578 66.6693 2.16774 66.6577 2.19924 66.6449C2.21352 66.6393 2.2279 66.6335 2.24209 66.6275C2.27935 66.6112 2.31589 66.5937 2.3515 66.5747C2.36194 66.5691 2.37229 66.5635 2.38264 66.5575C2.41111 66.5416 2.4394 66.5255 2.46724 66.5076L12.1458 60.3005C12.3343 60.1796 12.4886 60.0258 12.6068 59.8517H77.5821C77.701 60.0271 77.8564 60.1817 78.0465 60.3029L87.6243 66.4091C87.8911 66.5793 88.1892 66.6605 88.4841 66.6605C88.9296 66.6605 89.3671 66.4742 89.6764 66.1292C89.9908 65.8366 90.1887 65.4205 90.1887 64.9571V2.17424C90.1889 1.28929 89.4714 0.571899 88.5866 0.571899ZM10.4749 57.5691C10.4553 57.5806 10.4352 57.5905 10.4159 57.6029L3.20459 62.2275V5.91365L10.1728 12.5849C10.2661 12.6742 10.3681 12.7483 10.4749 12.8107V57.5691ZM17.246 56.7273H13.5991V54.3869L17.0147 50.9713L20.0082 53.9649L17.246 56.7273ZM21.549 18.1228L24.5426 21.1163L21.549 24.1098L18.5555 21.1163L21.549 18.1228ZM20.5294 13.6519H22.5687L21.549 14.6717L20.5294 13.6519ZM30.9872 18.1228L33.9806 21.1163L30.9872 24.1098L27.9936 21.1163L30.9872 18.1228ZM29.9675 13.6519H32.0069L30.9872 14.6717L29.9675 13.6519ZM40.4253 18.1228L43.4188 21.1163L40.4253 24.1098L37.4318 21.1163L40.4253 18.1228ZM39.4057 13.6519H41.4451L40.4253 14.6717L39.4057 13.6519ZM49.8636 18.1228L52.857 21.1163L49.8636 24.1098L46.8701 21.1163L49.8636 18.1228ZM48.8438 13.6519H50.8832L49.8633 14.6717L48.8438 13.6519ZM59.3016 18.1228L62.2953 21.1163L59.3016 24.1098L56.3082 21.1163L59.3016 18.1228ZM58.2819 13.6519H60.3213L59.3016 14.6717L58.2819 13.6519ZM68.7399 18.1228L71.7333 21.1163L68.7399 24.1098L65.7464 21.1163L68.7399 18.1228ZM67.7202 13.6519H69.7595L68.7396 14.6717L67.7202 13.6519ZM23.2745 35.2735L26.2681 32.2799L29.2616 35.2735L26.2681 38.2669L23.2745 35.2735ZM24.5426 39.9925L21.549 42.9862L18.5555 39.9925L21.549 36.9991L24.5426 39.9925ZM30.9872 36.9991L33.9806 39.9925L30.9872 42.9862L27.9936 39.9925L30.9872 36.9991ZM32.7128 35.2735L35.7063 32.2799L38.6997 35.2735L35.7063 38.2669L32.7128 35.2735ZM40.4253 36.9991L43.4188 39.9925L40.4253 42.9862L37.4318 39.9925L40.4253 36.9991ZM42.1509 35.2735L45.1444 32.2799L48.138 35.2735L45.1444 38.2669L42.1509 35.2735ZM49.8634 36.9991L52.857 39.9925L49.8634 42.9862L46.8699 39.9925L49.8634 36.9991ZM51.5892 35.2735L54.5826 32.2799L57.5761 35.2735L54.5826 38.2669L51.5892 35.2735ZM59.3016 36.9991L62.2951 39.9925L59.3016 42.9862L56.3082 39.9925L59.3016 36.9991ZM61.0272 35.2735L64.0207 32.2799L67.0143 35.2735L64.0207 38.2669L61.0272 35.2735ZM68.7397 36.9991L71.7333 39.9925L68.7397 42.9862L65.7463 39.9925L68.7397 36.9991ZM65.7463 30.5544L68.7397 27.561L71.7332 30.5544L68.7397 33.5479L65.7463 30.5544ZM64.0207 28.8289L61.0274 25.8354L64.0209 22.8419L67.0143 25.8354L64.0207 28.8289ZM62.2951 30.5544L59.3016 33.5479L56.3082 30.5544L59.3016 27.561L62.2951 30.5544ZM54.5826 28.8289L51.5892 25.8354L54.5826 22.8419L57.5762 25.8354L54.5826 28.8289ZM52.857 30.5544L49.8634 33.5479L46.8699 30.5544L49.8634 27.561L52.857 30.5544ZM45.1444 28.8289L42.1509 25.8354L45.1445 22.8419L48.138 25.8354L45.1444 28.8289ZM43.4189 30.5544L40.4254 33.5479L37.4319 30.5544L40.4254 27.561L43.4189 30.5544ZM35.7062 28.8289L32.7128 25.8354L35.7063 22.8419L38.6997 25.8354L35.7062 28.8289ZM33.9807 30.5544L30.9873 33.5479L27.9937 30.5544L30.9873 27.561L33.9807 30.5544ZM26.2681 28.8289L23.2746 25.8354L26.2681 22.8419L29.2617 25.8354L26.2681 28.8289ZM24.5426 30.5544L21.549 33.5479L18.5555 30.5544L21.549 27.561L24.5426 30.5544ZM16.8299 28.8289L13.8364 25.8354L16.83 22.8419L19.8235 25.8354L16.8299 28.8289ZM19.8234 35.2735L16.8299 38.2669L13.8364 35.2735L16.8299 32.2799L19.8234 35.2735ZM19.8234 44.7116L17.0147 47.5203L14.0211 44.5269L16.8299 41.7181L19.8234 44.7116ZM21.549 46.4371L24.5426 49.4308L21.7338 52.2395L18.7403 49.2461L21.549 46.4371ZM23.2745 44.7116L26.2681 41.7181L29.2616 44.7116L26.2681 47.7052L23.2745 44.7116ZM30.9872 46.4371L33.9806 49.4308L30.9872 52.4242L27.9936 49.4308L30.9872 46.4371ZM32.7128 44.7116L35.7063 41.7181L38.6997 44.7116L35.7063 47.7052L32.7128 44.7116ZM40.4253 46.4371L43.4188 49.4308L40.4253 52.4242L37.4318 49.4308L40.4253 46.4371ZM42.1509 44.7116L45.1444 41.7181L48.138 44.7116L45.1444 47.7052L42.1509 44.7116ZM49.8634 46.4371L52.857 49.4308L49.8634 52.4242L46.8699 49.4308L49.8634 46.4371ZM51.5892 44.7116L54.5826 41.7181L57.5761 44.7116L54.5826 47.7052L51.5892 44.7116ZM59.3016 46.4371L62.2951 49.4308L59.3016 52.4242L56.3082 49.4308L59.3016 46.4371ZM61.0272 44.7116L64.0207 41.7181L67.0143 44.7116L64.0207 47.7052L61.0272 44.7116ZM68.7397 46.4371L71.5485 49.2461L68.555 52.2395L65.7463 49.4308L68.7397 46.4371ZM70.4655 44.7116L73.4589 41.7181L76.2677 44.5269L73.2742 47.5203L70.4655 44.7116ZM70.4655 35.2735L73.4589 32.2799L76.4524 35.2735L73.4589 38.2669L70.4655 35.2735ZM70.4655 25.8353L73.4589 22.8418L76.4524 25.8353L73.4589 28.8288L70.4655 25.8353ZM64.0207 19.3906L61.0272 16.3971L63.7725 13.6519H64.2689L67.0141 16.3971L64.0207 19.3906ZM54.5826 19.3906L51.5892 16.3971L54.3342 13.6519H54.8308L57.5761 16.3971L54.5826 19.3906ZM45.1444 19.3906L42.1509 16.3971L44.896 13.6519H45.3927L48.1377 16.3971L45.1444 19.3906ZM35.7063 19.3906L32.7128 16.3971L35.458 13.6519H35.9545L38.6997 16.3971L35.7063 19.3906ZM26.2681 19.3906L23.2746 16.3971L26.0198 13.6519H26.5164L29.2615 16.3971L26.2681 19.3906ZM16.83 19.3906L13.5991 16.1598V13.6518H17.0782L19.8234 16.397L16.83 19.3906ZM15.1044 21.1163L13.5991 22.6215V19.611L15.1044 21.1163ZM15.1043 30.5544L13.5991 32.0596V29.0492L15.1043 30.5544ZM15.1043 39.9925L13.5991 41.4979V38.4874L15.1043 39.9925ZM15.2891 49.246L13.5991 50.936V47.556L15.2891 49.246ZM20.6971 56.7273L21.7338 55.6906L22.7705 56.7273H20.6971ZM26.6841 56.7273H26.2214L23.4593 53.965L26.2681 51.1563L29.2616 54.1497L26.6841 56.7273ZM30.1353 56.7273L30.9873 55.8753L31.8392 56.7273H30.1353ZM36.1223 56.7273H35.2901L32.7127 54.1498L35.7062 51.1562L38.6997 54.1498L36.1223 56.7273ZM39.5734 56.7273L40.4254 55.8753L41.2773 56.7273H39.5734ZM45.5605 56.7273H44.7282L42.1508 54.1498L45.1443 51.1562L48.1378 54.1498L45.5605 56.7273ZM49.0116 56.7273L49.8634 55.8753L50.7154 56.7273H49.0116ZM54.9986 56.7273H54.1665L51.5892 54.1498L54.5826 51.1562L57.5761 54.1498L54.9986 56.7273ZM58.4497 56.7273L59.3016 55.8753L60.1536 56.7273H58.4497ZM64.0672 56.7273H63.6045L61.0272 54.1498L64.0207 51.1562L66.8294 53.9651L64.0672 56.7273ZM67.5185 56.7273L68.5551 55.6906L69.5918 56.7273H67.5185ZM76.5898 56.7273H73.0429L70.2808 53.965L73.2742 50.9716L76.5898 54.2871V56.7273ZM76.5898 50.8361L74.9998 49.2461L76.5898 47.6561V50.8361ZM76.5898 41.3978L75.1843 39.9925L76.5898 38.5872V41.3978ZM76.5898 31.9597L75.1843 30.5543L76.5898 29.1491V31.9597ZM76.5898 22.5214L75.1845 21.1162L76.5898 19.7109V22.5214ZM76.5898 16.26L73.459 19.3907L70.4654 16.3972L73.2106 13.6519H76.5896V16.26H76.5898ZM77.8145 10.2565C77.7252 10.3396 77.649 10.4311 77.5834 10.5277H12.6065C12.5443 10.4363 12.4722 10.3498 12.389 10.2702L5.60645 3.77658H84.7533L77.8145 10.2565ZM86.9842 62.2003L79.7694 57.6008C79.7514 57.5892 79.7324 57.5798 79.714 57.5691V12.8111C79.8154 12.752 79.9123 12.6821 80.0018 12.5987L86.9842 6.07791V62.2003Z" fill="black"/>
</svg>
