<svg width="91" height="67" viewBox="0 0 91 67" fill="none" xmlns="http://www.w3.org/2000/svg">
<path d="M1.60238 66.7389L88.5866 66.7389C89.4716 66.7389 90.189 66.0215 90.189 65.1366L90.189 2.15199C90.189 2.13716 90.1871 2.12288 90.1868 2.10804C90.1859 2.07426 90.1847 2.04047 90.1817 2.00733C90.1798 1.98608 90.1767 1.96493 90.1739 1.94369C90.17 1.91311 90.1657 1.88234 90.1599 1.85213C90.1555 1.8285 90.1499 1.80506 90.1443 1.78162C90.1379 1.75461 90.1314 1.72778 90.1236 1.70132C90.116 1.67541 90.1071 1.64968 90.0981 1.62404C90.09 1.60079 90.0819 1.57735 90.0728 1.55464C90.0615 1.52653 90.0488 1.49906 90.0358 1.47168C90.0264 1.45181 90.0174 1.43176 90.0072 1.41235C89.9921 1.38342 89.9753 1.35513 89.9582 1.32665C89.9504 1.31356 89.9439 1.3 89.9355 1.28691C89.9317 1.28105 89.9275 1.27547 89.9235 1.26961C89.9165 1.25871 89.9091 1.24836 89.9017 1.23793C89.8794 1.2057 89.8561 1.17447 89.8316 1.14426C89.8276 1.13922 89.8237 1.13391 89.8196 1.12887C89.7892 1.09243 89.7572 1.05718 89.7238 1.02358C89.7201 1.01964 89.7162 1.01625 89.7125 1.0125C89.6788 0.979259 89.644 0.9474 89.6075 0.917184C89.6067 0.916452 89.606 0.915718 89.6053 0.915077C89.5681 0.884495 89.5292 0.855743 89.4892 0.828366C89.4836 0.824429 89.4777 0.820858 89.4718 0.81692C89.4353 0.792565 89.3977 0.769676 89.359 0.748433C89.3552 0.746327 89.3514 0.743761 89.3475 0.741839C89.309 0.720871 89.2691 0.702101 89.2288 0.684612C89.2159 0.678935 89.203 0.673534 89.1901 0.668132C89.1517 0.652566 89.1126 0.637917 89.0728 0.625189C89.0614 0.621618 89.0497 0.618596 89.0381 0.615208C89.0042 0.605411 88.9699 0.596622 88.9352 0.588931C88.9217 0.585909 88.9081 0.582703 88.8945 0.579956C88.8512 0.571532 88.8075 0.564757 88.7631 0.559904C88.7531 0.558805 88.7429 0.557981 88.7328 0.557065C88.6838 0.552579 88.6346 0.54956 88.5853 0.54956C88.5359 0.54956 88.4865 0.55258 88.4372 0.55725C88.427 0.558165 88.4169 0.559176 88.4068 0.560458C88.3624 0.56531 88.3184 0.571902 88.2752 0.580509C88.2703 0.581608 88.2654 0.582155 88.2605 0.582979C88.2141 0.592593 88.1685 0.604772 88.1235 0.618232C88.1109 0.622169 88.0982 0.626469 88.0856 0.630772C88.0532 0.641485 88.0212 0.653119 87.9897 0.665846C87.9754 0.671523 87.9611 0.677289 87.9469 0.683332C87.9096 0.69963 87.8731 0.717118 87.8375 0.736071C87.827 0.741657 87.8167 0.747332 87.8063 0.753284C87.7779 0.769216 87.7496 0.785335 87.7217 0.803189L78.0431 7.01029C77.8547 7.13115 77.7003 7.28498 77.5822 7.45913L12.6069 7.45913C12.488 7.2837 12.3326 7.12914 12.1425 7.00791L2.5647 0.901709C2.29789 0.731495 1.99976 0.650276 1.70484 0.650276C1.25939 0.650276 0.821906 0.836609 0.512608 1.18162C0.198183 1.47416 0.000224148 1.89031 0.000224148 2.3537L0.000224148 65.1366C4.1023e-05 66.0215 0.717522 66.7389 1.60238 66.7389ZM79.714 9.74169C79.7336 9.73024 79.7538 9.72026 79.7731 9.7079L86.9844 5.08327L86.9844 61.3971L80.0162 54.7259C79.9229 54.6365 79.8209 54.5625 79.714 54.5001V9.74169ZM72.943 10.5835H76.5898V12.9239L73.1743 16.3395L70.1808 13.3459L72.943 10.5835ZM68.6399 49.188L65.6464 46.1945L68.6399 43.201L71.6335 46.1945L68.6399 49.188ZM69.6596 53.6588H67.6202L68.6399 52.6391L69.6596 53.6588ZM59.2018 49.188L56.2083 46.1945L59.2018 43.201L62.1953 46.1945L59.2018 49.188ZM60.2214 53.6588H58.1821L59.2018 52.6391L60.2214 53.6588ZM49.7636 49.188L46.7702 46.1945L49.7636 43.201L52.7572 46.1945L49.7636 49.188ZM50.7833 53.6588H48.7439L49.7636 52.6391L50.7833 53.6588ZM40.3254 49.188L37.3319 46.1945L40.3254 43.201L43.3188 46.1945L40.3254 49.188ZM41.3451 53.6588H39.3057L40.3257 52.6391L41.3451 53.6588ZM30.8873 49.188L27.8937 46.1945L30.8873 43.201L33.8808 46.1945L30.8873 49.188ZM31.9071 53.6588H29.8677L30.8874 52.6391L31.9071 53.6588ZM21.4491 49.188L18.4556 46.1945L21.4491 43.201L24.4425 46.1945L21.4491 49.188ZM22.4688 53.6588H20.4294L21.4493 52.6391L22.4688 53.6588ZM66.9145 32.0373L63.9209 35.0308L60.9274 32.0373L63.9209 29.0439L66.9145 32.0373ZM65.6464 27.3183L68.6399 24.3246L71.6335 27.3183L68.6399 30.3117L65.6464 27.3183ZM59.2018 30.3117L56.2083 27.3183L59.2018 24.3246L62.1953 27.3183L59.2018 30.3117ZM57.4762 32.0373L54.4827 35.0308L51.4892 32.0373L54.4827 29.0439L57.4762 32.0373ZM49.7636 30.3117L46.7702 27.3183L49.7636 24.3246L52.7572 27.3183L49.7636 30.3117ZM48.038 32.0373L45.0446 35.0308L42.051 32.0373L45.0446 29.0439L48.038 32.0373ZM40.3256 30.3117L37.3319 27.3183L40.3256 24.3246L43.319 27.3183L40.3256 30.3117ZM38.5998 32.0373L35.6064 35.0308L32.6129 32.0373L35.6064 29.0439L38.5998 32.0373ZM30.8873 30.3117L27.8939 27.3183L30.8873 24.3246L33.8808 27.3183L30.8873 30.3117ZM29.1617 32.0373L26.1683 35.0308L23.1747 32.0373L26.1683 29.0439L29.1617 32.0373ZM21.4493 30.3117L18.4556 27.3183L21.4493 24.3246L24.4427 27.3183L21.4493 30.3117ZM24.4427 36.7564L21.4493 39.7498L18.4558 36.7564L21.4493 33.7629L24.4427 36.7564ZM26.1683 38.4819L29.1616 41.4754L26.1681 44.4689L23.1747 41.4754L26.1683 38.4819ZM27.8939 36.7564L30.8873 33.7629L33.8808 36.7564L30.8873 39.7498L27.8939 36.7564ZM35.6064 38.4819L38.5998 41.4754L35.6064 44.4689L32.6127 41.4754L35.6064 38.4819ZM37.3319 36.7564L40.3256 33.7629L43.319 36.7564L40.3256 39.7498L37.3319 36.7564ZM45.0446 38.4819L48.038 41.4754L45.0445 44.4689L42.051 41.4754L45.0446 38.4819ZM46.7701 36.7564L49.7635 33.7629L52.7571 36.7564L49.7635 39.7498L46.7701 36.7564ZM54.4828 38.4819L57.4762 41.4754L54.4827 44.4689L51.4892 41.4754L54.4828 38.4819ZM56.2082 36.7564L59.2017 33.7629L62.1952 36.7564L59.2017 39.7498L56.2082 36.7564ZM63.9209 38.4819L66.9144 41.4754L63.9208 44.4689L60.9273 41.4754L63.9209 38.4819ZM65.6464 36.7564L68.6399 33.7629L71.6335 36.7564L68.6399 39.7498L65.6464 36.7564ZM73.3591 38.4819L76.3525 41.4754L73.359 44.4689L70.3654 41.4754L73.3591 38.4819ZM70.3655 32.0373L73.3591 29.0439L76.3526 32.0373L73.3591 35.0308L70.3655 32.0373ZM70.3655 22.5992L73.1743 19.7905L76.1678 22.7839L73.3591 25.5927L70.3655 22.5992ZM68.6399 20.8737L65.6464 17.88L68.4552 15.0713L71.4487 18.0647L68.6399 20.8737ZM66.9145 22.5992L63.9209 25.5927L60.9274 22.5992L63.9209 19.6056L66.9145 22.5992ZM59.2018 20.8737L56.2083 17.88L59.2018 14.8866L62.1953 17.88L59.2018 20.8737ZM57.4762 22.5992L54.4827 25.5927L51.4892 22.5992L54.4827 19.6056L57.4762 22.5992ZM49.7636 20.8737L46.7702 17.88L49.7636 14.8866L52.7572 17.88L49.7636 20.8737ZM48.038 22.5992L45.0446 25.5927L42.051 22.5992L45.0446 19.6056L48.038 22.5992ZM40.3256 20.8737L37.3319 17.88L40.3256 14.8866L43.319 17.88L40.3256 20.8737ZM38.5998 22.5992L35.6064 25.5927L32.6129 22.5992L35.6064 19.6056L38.5998 22.5992ZM30.8873 20.8737L27.8939 17.88L30.8873 14.8866L33.8808 17.88L30.8873 20.8737ZM29.1617 22.5992L26.1683 25.5927L23.1747 22.5992L26.1683 19.6056L29.1617 22.5992ZM21.4493 20.8737L18.6405 18.0647L21.6339 15.0713L24.4427 17.88L21.4493 20.8737ZM19.7235 22.5992L16.73 25.5927L13.9213 22.7839L16.9147 19.7905L19.7235 22.5992ZM19.7235 32.0373L16.73 35.0308L13.7366 32.0373L16.73 29.0439L19.7235 32.0373ZM19.7235 41.4755L16.73 44.469L13.7366 41.4755L16.73 38.482L19.7235 41.4755ZM26.1683 47.9202L29.1617 50.9137L26.4165 53.6589H25.9201L23.1748 50.9137L26.1683 47.9202ZM35.6064 47.9202L38.5998 50.9137L35.8548 53.6589H35.3581L32.6129 50.9137L35.6064 47.9202ZM45.0446 47.9202L48.038 50.9137L45.2929 53.6589H44.7963L42.0512 50.9137L45.0446 47.9202ZM54.4827 47.9202L57.4762 50.9137L54.731 53.6589H54.2344L51.4893 50.9137L54.4827 47.9202ZM63.9208 47.9202L66.9144 50.9137L64.1691 53.6589H63.6726L60.9275 50.9137L63.9208 47.9202ZM73.359 47.9202L76.5898 51.151V53.659H73.1108L70.3655 50.9138L73.359 47.9202ZM75.0846 46.1945L76.5898 44.6893V47.6998L75.0846 46.1945ZM75.0847 36.7564L76.5898 35.2511V38.2616L75.0847 36.7564ZM75.0847 27.3183L76.5898 25.8129V28.8234L75.0847 27.3183ZM74.8999 18.0648L76.5898 16.3748V19.7548L74.8999 18.0648ZM69.4918 10.5835L68.4552 11.6202L67.4185 10.5835H69.4918ZM63.5049 10.5835H63.9675L66.7297 13.3458L63.9209 16.1545L60.9274 13.1611L63.5049 10.5835ZM60.0537 10.5835L59.2017 11.4355L58.3498 10.5835H60.0537ZM54.0667 10.5835H54.8988L57.4763 13.161L54.4828 16.1546L51.4893 13.161L54.0667 10.5835ZM50.6155 10.5835L49.7635 11.4355L48.9116 10.5835H50.6155ZM44.6285 10.5835H45.4608L48.0381 13.161L45.0447 16.1546L42.0512 13.161L44.6285 10.5835ZM41.1774 10.5835L40.3256 11.4355L39.4736 10.5835H41.1774ZM35.1904 10.5835H36.0225L38.5998 13.161L35.6064 16.1546L32.6129 13.161L35.1904 10.5835ZM31.7393 10.5835L30.8873 11.4355L30.0353 10.5835H31.7393ZM26.1218 10.5835H26.5844L29.1617 13.161L26.1683 16.1546L23.3595 13.3457L26.1218 10.5835ZM22.6705 10.5835L21.6338 11.6202L20.5972 10.5835H22.6705ZM13.5992 10.5835H17.1461L19.9082 13.3458L16.9147 16.3392L13.5992 13.0237V10.5835ZM13.5992 16.4747L15.1891 18.0647L13.5992 19.6547V16.4747ZM13.5992 25.913L15.0046 27.3183L13.5992 28.7236V25.913ZM13.5992 35.3511L15.0046 36.7565L13.5992 38.1617V35.3511ZM13.5992 44.7894L15.0045 46.1946L13.5992 47.5999V44.7894ZM13.5992 51.0508L16.7299 47.9201L19.7236 50.9136L16.9784 53.6588H13.5993V51.0508H13.5992ZM12.3745 57.0543C12.4638 56.9712 12.54 56.8797 12.6055 56.783L77.5825 56.783C77.6446 56.8745 77.7168 56.961 77.7999 57.0406L84.5825 63.5342L5.43564 63.5342L12.3745 57.0543ZM3.20472 5.11047L10.4196 9.71001C10.4376 9.72164 10.4566 9.73097 10.475 9.74169V54.4997C10.3736 54.5588 10.2766 54.6287 10.1872 54.7121L3.20472 61.2329L3.20472 5.11047Z" fill="black"/>
</svg>
